<?xml version="1.0" encoding="UTF-8" standalone="no"?>
<svg
   version="1.0"
   width="200.00005pt"
   height="200.00005pt"
   viewBox="0 0 200.00005 200.00005"
   preserveAspectRatio="xMidYMid"
   id="svg192"
   sodipodi:docname="icon.svg"
   inkscape:version="1.2.1 (9c6d41e4, 2022-07-14)"
   inkscape:export-filename="../../steganography-js/public/logo512.png"
   inkscape:export-xdpi="184.31996"
   inkscape:export-ydpi="184.31996"
   xmlns:inkscape="http://www.inkscape.org/namespaces/inkscape"
   xmlns:sodipodi="http://sodipodi.sourceforge.net/DTD/sodipodi-0.dtd"
   xmlns="http://www.w3.org/2000/svg"
   xmlns:svg="http://www.w3.org/2000/svg">
  <defs
     id="defs196" />
  <sodipodi:namedview
     id="namedview194"
     pagecolor="#505050"
     bordercolor="#ffffff"
     borderopacity="1"
     inkscape:showpageshadow="0"
     inkscape:pageopacity="0"
     inkscape:pagecheckerboard="1"
     inkscape:deskcolor="#505050"
     inkscape:document-units="pt"
     showgrid="false"
     inkscape:zoom="2.875"
     inkscape:cx="132.86957"
     inkscape:cy="133.04348"
     inkscape:window-width="1595"
     inkscape:window-height="997"
     inkscape:window-x="84"
     inkscape:window-y="25"
     inkscape:window-maximized="0"
     inkscape:current-layer="svg192" />
  <circle
     style="fill:#eeeeee;fill-opacity:1;stroke:#ffff00;stroke-width:22.1565;stroke-opacity:0.01"
     id="path2437"
     cx="100.00002"
     cy="100.00002"
     inkscape:label="circle"
     r="88.921776" />
  <g
     transform="matrix(0.07609863,0,0,-0.07158728,31.557922,164.38325)"
     fill="#000000"
     stroke="none"
     id="g190"
     style="fill:#002b4d;fill-opacity:1">
    <path
       d="m 1183,1726 c -109,-35 -215,-133 -254,-234 -30,-77 -31,-205 -2,-278 L 947,1162 543,759 C 321,537 132,343 124,328 95,273 116,203 170,175 c 37,-19 67,-19 104,0 l 30,16 66,-66 c 85,-84 98,-84 173,-6 32,33 57,67 57,76 0,10 -31,50 -70,89 l -70,72 40,39 40,39 68,-67 c 87,-86 100,-87 176,-7 70,73 69,79 -20,170 l -64,65 203,203 202,202 60,-21 c 81,-28 190,-28 268,1 325,122 344,576 29,723 -55,26 -81,32 -152,34 -53,2 -101,-2 -127,-11 z m 208,-241 c 44,-29 69,-78 69,-140 0,-87 -61,-154 -149,-163 -94,-9 -171,57 -179,153 -12,140 139,227 259,150 z"
       id="path188"
       style="fill:#002b4d;fill-opacity:1"
       inkscape:label="key" />
  </g>
</svg>
