<?xml version="1.0" encoding="UTF-8" standalone="no"?>
<svg
   version="1.0"
   width="180.000000pt"
   height="180.000000pt"
   viewBox="0 0 180.000000 180.000000"
   preserveAspectRatio="xMidYMid meet"
   id="svg192"
   sodipodi:docname="icon.svg"
   inkscape:version="1.2.1 (9c6d41e4, 2022-07-14)"
   xmlns:inkscape="http://www.inkscape.org/namespaces/inkscape"
   xmlns:sodipodi="http://sodipodi.sourceforge.net/DTD/sodipodi-0.dtd"
   xmlns="http://www.w3.org/2000/svg"
   xmlns:svg="http://www.w3.org/2000/svg">
  <defs
     id="defs196" />
  <sodipodi:namedview
     id="namedview194"
     pagecolor="#505050"
     bordercolor="#ffffff"
     borderopacity="1"
     inkscape:showpageshadow="0"
     inkscape:pageopacity="0"
     inkscape:pagecheckerboard="1"
     inkscape:deskcolor="#505050"
     inkscape:document-units="pt"
     showgrid="false"
     inkscape:zoom="2.875"
     inkscape:cx="119.30435"
     inkscape:cy="120"
     inkscape:window-width="1567"
     inkscape:window-height="910"
     inkscape:window-x="85"
     inkscape:window-y="25"
     inkscape:window-maximized="0"
     inkscape:current-layer="svg192" />
  <g
     transform="translate(0.000000,180.000000) scale(0.100000,-0.100000)"
     fill="#000000"
     stroke="none"
     id="g190"
     style="fill:#002b4d;fill-opacity:1">
    <path
       d="M1183 1726 c-109 -35 -215 -133 -254 -234 -30 -77 -31 -205 -2 -278 l20 -52 -404 -403 c-222 -222 -411 -416 -419 -431 -29 -55 -8 -125 46 -153 37 -19 67 -19 104 0 l30 16 66 -66 c85 -84 98 -84 173 -6 32 33 57 67 57 76 0 10 -31 50 -70 89 l-70 72 40 39 40 39 68 -67 c87 -86 100 -87 176 -7 70 73 69 79 -20 170 l-64 65 203 203 202 202 60 -21 c81 -28 190 -28 268 1 325 122 344 576 29 723 -55 26 -81 32 -152 34 -53 2 -101 -2 -127 -11z m208 -241 c44 -29 69 -78 69 -140 0 -87 -61 -154 -149 -163 -94 -9 -171 57 -179 153 -12 140 139 227 259 150z"
       id="path188"
       style="fill:#002b4d;fill-opacity:1" />
  </g>
</svg>
